<svg xmlns="http://www.w3.org/2000/svg" width="30" height="30" viewBox="0 0 30 30">
  <g id="alarm" transform="translate(-497 -197)">
    <path id="Icon_material-alarm-on" data-name="Icon material-alarm-on" d="M16.976,5.487l-3.215-2.7-.9,1.069,3.215,2.7ZM7.109,3.859,6.215,2.79,3,5.48,3.9,6.55Zm2.879.426a6.289,6.289,0,1,0,6.289,6.289A6.29,6.29,0,0,0,9.988,4.285Zm0,11.181a4.892,4.892,0,1,1,4.892-4.892A4.888,4.888,0,0,1,9.988,15.467Zm-1.02-3.823L7.479,10.156l-.741.741,2.222,2.222,4.193-4.193-.741-.741L8.968,11.644Z" transform="translate(502.012 202.173)" fill="#fff" opacity="0.72"/>
    <g id="Rectangle_6" data-name="Rectangle 6" transform="translate(497 197)" fill="none" stroke="#fff" stroke-width="1" opacity="0.3">
      <rect width="30" height="30" rx="5" stroke="none"/>
      <rect x="0.5" y="0.5" width="29" height="29" rx="4.5" fill="none"/>
    </g>
  </g>
</svg>
