<svg xmlns="http://www.w3.org/2000/svg" width="59.915" height="13.854" viewBox="0 0 59.915 13.854">
  <path id="graph" d="M-1090.979,23.489V10.364c0-.2.265-.365.592-.365s.592.163.592.365V23.489c0,.2-.264.365-.592.365S-1090.979,23.691-1090.979,23.489Zm-17.31,0V10.364c0-.2.264-.365.592-.365s.592.163.592.365V23.489c0,.2-.266.365-.592.365S-1108.289,23.69-1108.289,23.489Zm32.1-1.459V11.822c0-.2.264-.365.592-.365s.592.164.592.365V22.03c0,.2-.264.365-.592.365S-1076.186,22.232-1076.186,22.03Zm-46.9,0V11.822c0-.2.265-.365.592-.365s.592.164.592.365V22.03c0,.2-.264.365-.592.365S-1123.082,22.232-1123.082,22.03Zm35-1.065v-8.2c0-.2.264-.365.592-.365s.592.163.592.365v8.2c0,.2-.264.365-.592.365S-1088.078,21.166-1088.078,20.965Zm-23.112,0v-8.2c0-.2.265-.365.592-.365s.592.163.592.365v8.2c0,.2-.264.365-.592.365S-1111.19,21.166-1111.19,20.965Zm17.253-.393V13.281c0-.2.265-.365.592-.365s.592.163.592.365v7.291c0,.2-.266.365-.592.365S-1093.937,20.774-1093.937,20.572Zm-11.394,0V13.281c0-.2.264-.365.592-.365s.592.164.592.365v7.291c0,.2-.264.365-.592.365S-1105.331,20.774-1105.331,20.572Zm26.187-.729v-6.2c0-.2.264-.365.592-.365s.592.163.592.365v6.2c0,.2-.266.365-.592.365S-1079.144,20.045-1079.144,19.843Zm-40.98,0v-6.2c0-.2.266-.365.592-.365s.592.163.592.365v6.2c0,.2-.264.365-.592.365S-1120.124,20.045-1120.124,19.843Zm46.895-.455V14.341c0-.2.265-.365.592-.365s.592.163.592.365v5.047c0,.2-.264.365-.592.365S-1073.229,19.589-1073.229,19.388Zm-52.809,0V14.341c0-.2.264-.365.592-.365s.592.164.592.365v5.047c0,.2-.264.365-.592.365S-1126.039,19.589-1126.039,19.388Zm29.143-.638V15.1c0-.2.265-.365.59-.365s.593.163.593.365V18.75c0,.2-.266.365-.593.365S-1096.9,18.95-1096.9,18.75Zm-5.478,0V15.1c0-.2.266-.365.592-.365s.592.163.592.365V18.75c0,.2-.264.365-.592.365S-1102.373,18.95-1102.373,18.75Zm17.367-.4V15.38c0-.2.264-.365.592-.365s.592.164.592.365v2.968c0,.2-.264.365-.592.365S-1085.006,18.549-1085.006,18.348Zm-29.256,0V15.38c0-.2.265-.365.592-.365s.592.163.592.365v2.967c0,.2-.264.365-.592.365S-1114.262,18.549-1114.262,18.347Zm43.994-.691V15.833c0-.2.264-.364.592-.364s.592.164.592.364v1.823c0,.2-.264.365-.592.365S-1070.269,17.857-1070.269,17.656Zm-11.835,0V16.2c0-.2.266-.365.592-.365s.592.164.592.365v1.459c0,.2-.264.365-.592.365S-1082.1,17.857-1082.1,17.656Zm-35.061,0V16.2c0-.2.265-.365.592-.365s.592.164.592.365v1.458c0,.2-.266.365-.592.365S-1117.165,17.857-1117.165,17.655Zm-11.835,0V15.833c0-.2.265-.364.592-.364s.592.163.592.364v1.823c0,.2-.264.365-.592.365S-1129,17.857-1129,17.655Zm29.957.336a.922.922,0,0,1-.22.026c-.327,0-.592-.163-.592-.365V16.076c0-.2.265-.364.592-.364a.923.923,0,0,1,.219.026.919.919,0,0,1,.222-.027c.326,0,.592.164.592.364v1.578c0,.2-.266.365-.592.365A.923.923,0,0,1-1099.042,17.991Z" transform="translate(1129 -10)" fill="#fff" opacity="0.6"/>
</svg>
