<svg xmlns="http://www.w3.org/2000/svg" width="23.676" height="21.524" viewBox="0 0 23.676 21.524">
  <path id="photo" d="M50.762-907.086Zm-8.61,8.61a2.073,2.073,0,0,1-1.52-.632,2.073,2.073,0,0,1-.632-1.52v-12.914a2.073,2.073,0,0,1,.632-1.52,2.073,2.073,0,0,1,1.52-.632h3.39l1.991-2.152h6.457v2.152H48.475l-1.964,2.152H42.152v12.914H59.372v-9.686h2.152v9.686a2.073,2.073,0,0,1-.632,1.52,2.073,2.073,0,0,1-1.52.632Zm17.219-15.067V-915.7H57.219v-2.152h2.152V-920h2.152v2.152h2.152v2.152H61.524v2.152Zm-8.61,11.3a4.67,4.67,0,0,0,3.43-1.412,4.67,4.67,0,0,0,1.413-3.43,4.67,4.67,0,0,0-1.413-3.43,4.67,4.67,0,0,0-3.43-1.413,4.67,4.67,0,0,0-3.43,1.413,4.67,4.67,0,0,0-1.413,3.43,4.67,4.67,0,0,0,1.413,3.43A4.67,4.67,0,0,0,50.762-902.243Zm0-2.152a2.6,2.6,0,0,1-1.91-.78,2.6,2.6,0,0,1-.78-1.91,2.6,2.6,0,0,1,.78-1.91,2.6,2.6,0,0,1,1.91-.78,2.6,2.6,0,0,1,1.91.78,2.6,2.6,0,0,1,.78,1.91,2.6,2.6,0,0,1-.78,1.91A2.6,2.6,0,0,1,50.762-904.395Z" transform="translate(-40 920)" fill="#fff"/>
</svg>
