<svg xmlns="http://www.w3.org/2000/svg" width="17.349" height="25.235" viewBox="0 0 17.349 25.235">
  <path id="record" d="M8.675,17.349a4.732,4.732,0,0,0,4.732-4.732V4.732a4.732,4.732,0,1,0-9.463,0v7.886A4.732,4.732,0,0,0,8.675,17.349Zm7.886-7.886h-.789a.788.788,0,0,0-.789.789v2.366A6.316,6.316,0,0,1,8.044,18.9a6.5,6.5,0,0,1-5.678-6.559V10.252a.788.788,0,0,0-.789-.789H.789A.788.788,0,0,0,0,10.252v1.979a8.946,8.946,0,0,0,7.492,8.955V22.87H4.732a.788.788,0,0,0-.789.789v.789a.788.788,0,0,0,.789.789h7.886a.788.788,0,0,0,.789-.789v-.789a.788.788,0,0,0-.789-.789H9.858V21.205a8.683,8.683,0,0,0,7.492-8.587V10.252A.788.788,0,0,0,16.561,9.463Z" fill="#fff"/>
</svg>
